<svg width="226" height="210" viewBox="0 0 226 210" fill="none" xmlns="http://www.w3.org/2000/svg">
<g clip-path="url(#clip0_267_764)">
<path d="M92.5848 140.625C92.5848 140.325 91.9822 139.125 91.3795 138.3C89.7975 135.975 87.2362 134.175 82.7915 134.175H81.1342C76.0868 134.175 71.6422 137.4 71.6422 142.875C71.6422 148.05 75.7855 149.475 79.7782 150.3C82.8668 150.9 85.9555 150.75 85.9555 152.85C85.9555 154.05 84.8255 155.25 82.7162 155.25H81.0588C79.4015 155.25 77.8195 154.2 76.9908 152.025C76.9155 151.725 76.6895 151.65 76.5388 151.65C76.3882 151.65 76.0115 151.8 75.7102 151.95L71.6422 153.9C71.4162 153.975 71.3408 154.2 71.3408 154.35C71.3408 154.65 71.7928 155.55 72.3202 156.45C73.9022 158.925 76.4635 160.875 81.0588 160.875H82.7162C89.0442 160.875 92.4342 156.75 92.4342 151.95C92.4342 146.85 88.2155 145.425 84.1475 144.6C81.1342 143.925 78.0455 144.075 78.0455 141.9C78.0455 140.55 79.0248 139.8 81.1342 139.8H82.7915C84.4488 139.8 86.0308 140.85 86.9348 143.025C87.0102 143.25 87.2362 143.325 87.3868 143.325C87.6128 143.325 87.7635 143.25 87.9895 143.1L92.2835 141C92.4342 140.925 92.5848 140.775 92.5848 140.625Z" fill="black"/>
<path d="M105.015 129.375C105.015 127.35 103.282 125.625 101.248 125.625C99.2141 125.625 97.4814 127.35 97.4814 129.375C97.4814 131.4 99.2141 133.125 101.248 133.125C103.207 133.125 105.015 131.4 105.015 129.375Z" fill="black"/>
<path d="M104.412 159.75V136.5C104.412 136.125 104.261 135.975 103.885 135.975H98.6113C98.2346 135.975 98.084 136.125 98.084 136.5V159.75C98.084 160.125 98.2346 160.275 98.6113 160.275H103.885C104.261 160.275 104.412 160.125 104.412 159.75Z" fill="black"/>
<path d="M133.34 159.825C133.34 159.6 133.189 159.375 133.039 159.075L123.999 144.75C123.773 144.375 123.697 144.225 123.697 144C123.697 143.775 123.773 143.625 123.999 143.325L131.532 135.675C131.683 135.525 131.758 135.375 131.758 135.15C131.758 134.85 131.532 134.7 131.155 134.7H124.601C124.225 134.7 124.074 134.85 123.848 135.075L118.123 141.375C117.972 141.525 117.821 141.6 117.671 141.6C117.369 141.6 117.143 141.375 117.143 141V130.05C117.143 129.675 116.993 129.525 116.616 129.525H111.343C110.966 129.525 110.815 129.675 110.815 130.05V159.825C110.815 160.2 110.966 160.35 111.343 160.35H116.616C116.993 160.35 117.143 160.2 117.143 159.825V150.825C117.143 150.6 117.219 150.45 117.445 150.225L118.198 149.475C118.349 149.325 118.499 149.25 118.65 149.25C118.801 149.25 118.951 149.325 119.102 149.55L125.581 160.125C125.656 160.275 125.882 160.425 126.108 160.425H132.662C133.114 160.275 133.34 160.125 133.34 159.825Z" fill="black"/>
<path d="M152.325 128.7C152.325 128.475 152.174 128.325 151.873 128.25C150.894 128.025 149.462 127.875 148.257 127.875C142.532 127.875 137.786 132.675 137.786 138.375V138.75C137.786 139.125 137.635 139.275 137.258 139.275H135.978C135.601 139.275 135.45 139.425 135.45 139.8V144.6C135.45 144.975 135.601 145.125 135.978 145.125H137.258C137.635 145.125 137.786 145.275 137.786 145.65V159.675C137.786 160.05 137.936 160.2 138.313 160.2H143.662C144.038 160.2 144.189 160.05 144.189 159.675V145.65C144.189 145.275 144.34 145.125 144.716 145.125H148.408C148.784 145.125 148.935 144.975 148.935 144.6V139.8C148.935 139.425 148.784 139.275 148.408 139.275H144.716C144.34 139.275 144.189 139.125 144.189 138.75V137.775C144.189 135.45 145.846 133.725 148.182 133.725C149.161 133.725 149.839 134.1 150.065 134.1C150.291 134.1 150.442 133.875 150.517 133.65L152.024 129.525C152.25 129.3 152.325 128.925 152.325 128.7Z" fill="black"/>
<path d="M167.993 143.25C167.993 143.55 167.767 143.775 167.391 143.775H160.686C160.309 143.775 160.083 143.55 160.083 143.25C160.083 142.5 161.289 140.025 164.076 140.025C166.863 140.025 167.993 142.575 167.993 143.25ZM174.472 148.575V144C174.472 139.35 170.329 134.1 164.001 134.1C157.597 134.1 153.454 139.35 153.454 144V150.975C153.454 156.825 157.597 160.875 164.001 160.875C168.897 160.875 171.383 158.775 173.116 155.925C173.568 155.175 173.945 154.5 173.945 154.275C173.945 154.125 173.869 153.975 173.643 153.825L169.425 151.725C168.973 151.5 168.671 151.35 168.445 151.35C168.295 151.35 168.144 151.425 167.993 151.65C167.014 154.05 165.432 154.95 164.001 154.95C161.665 154.95 159.933 153.075 159.933 150.9V149.625C159.933 149.25 160.083 149.1 160.46 149.1H173.869C174.321 149.175 174.472 148.95 174.472 148.575Z" fill="black"/>
<path d="M200.311 140.625C200.311 140.325 199.709 139.125 199.106 138.3C197.524 135.975 194.963 134.175 190.518 134.175H188.861C183.813 134.175 179.369 137.4 179.369 142.875C179.369 148.05 183.512 149.475 187.505 150.3C190.593 150.9 193.682 150.75 193.682 152.85C193.682 154.05 192.552 155.25 190.443 155.25H188.785C187.128 155.25 185.546 154.2 184.717 152.025C184.642 151.725 184.416 151.65 184.265 151.65C184.115 151.65 183.738 151.8 183.437 151.95L179.369 153.9C179.143 153.975 179.067 154.2 179.067 154.35C179.067 154.65 179.519 155.55 180.047 156.45C181.629 158.925 184.19 160.875 188.785 160.875H190.443C196.771 160.875 200.161 156.75 200.161 151.95C200.161 146.85 195.942 145.425 191.874 144.6C188.861 143.925 185.772 144.075 185.772 141.9C185.772 140.55 186.751 139.8 188.861 139.8H190.518C192.175 139.8 193.757 140.85 194.661 143.025C194.737 143.25 194.963 143.325 195.113 143.325C195.339 143.325 195.49 143.25 195.716 143.1L200.01 141C200.236 140.925 200.311 140.775 200.311 140.625Z" fill="black"/>
<path d="M219.748 160.35V155.55C219.748 155.25 219.597 155.025 219.22 155.025C216.282 154.8 214.851 153.075 214.851 151.05V141.15C214.851 140.775 215.002 140.625 215.378 140.625H219.07C219.446 140.625 219.597 140.475 219.597 140.1V135.3C219.597 134.925 219.446 134.775 219.07 134.775H215.378C215.002 134.775 214.851 134.625 214.851 134.25V130.575C214.851 130.2 214.7 130.05 214.324 130.05H211.687C211.386 130.05 211.16 130.2 211.009 130.35L204.53 137.175C204.455 138.675 204.455 139.875 204.455 140.175C204.455 140.475 204.606 140.7 204.982 140.7H207.92C208.297 140.7 208.448 140.85 208.448 141.225V151.125C208.448 155.25 210.482 158.475 214.324 160.05C215.981 160.725 218.015 161.025 219.145 161.025C219.522 160.875 219.748 160.725 219.748 160.35Z" fill="black"/>
<path d="M39.5504 159.75V144C39.5504 138.15 35.2564 134.1 29.6064 134.1C27.2711 134.1 24.7851 134.7 23.2784 136.125C23.2031 136.2 22.9771 136.275 22.9017 136.275C22.8264 136.275 22.6004 136.275 22.4497 136.2C21.0184 134.775 18.4571 134.1 16.1217 134.1C10.4717 134.1 6.17773 138.225 6.17773 144.075V159.75C6.17773 160.125 6.3284 160.275 6.70507 160.275H12.0537C12.4304 160.275 12.5811 160.125 12.5811 159.75V144.075C12.5811 141.9 14.3137 140.1 16.0464 140.1C17.6284 140.1 19.5117 141.825 19.5117 144V159.75C19.5117 160.125 19.6624 160.35 20.0391 160.35H25.3877C25.7644 160.35 25.9151 160.2 25.9151 159.75V144C25.9151 141.825 27.7984 140.025 29.3804 140.025C31.1131 140.025 32.8457 141.825 32.8457 144V159.75C32.8457 160.125 32.9964 160.35 33.3731 160.35H38.7217C39.3997 160.275 39.5504 160.125 39.5504 159.75Z" fill="black"/>
<path d="M66.2188 150.975V135.15C66.2188 134.775 66.0681 134.625 65.6914 134.625H60.3428C59.9661 134.625 59.8154 134.775 59.8154 135.15V150.975C59.8154 153.3 58.0828 155.025 55.8228 155.025C54.0148 155.025 52.4328 153.825 51.9808 152.175C51.9054 151.8 51.8301 151.425 51.8301 150.975V135.15C51.8301 134.775 51.6794 134.625 51.3028 134.625H45.9541C45.5774 134.625 45.4268 134.775 45.4268 135.15V150.975C45.4268 156.825 49.5701 160.875 55.8981 160.875C55.8981 160.875 55.8981 160.875 55.9734 160.875C62.1508 160.95 66.2188 156.825 66.2188 150.975Z" fill="black"/>
<path d="M49.042 193.2C49.042 195.525 47.3093 197.25 45.0493 197.25C42.8647 197.25 40.9813 195.525 40.9813 193.2V187.275C40.9813 185.025 42.7893 183.3 45.0493 183.3C47.3093 183.3 49.042 185.025 49.042 187.275V193.2ZM55.5207 193.2V187.275C55.5207 181.425 51.1513 177.375 45.5767 177.375C44.522 177.375 43.0907 177.75 41.8853 178.35C41.7347 178.425 41.584 178.425 41.4333 178.425C41.132 178.425 40.9813 178.2 40.9813 177.825V173.175C40.9813 172.8 40.8307 172.65 40.454 172.65H35.1807C34.804 172.65 34.6533 172.8 34.6533 173.175V202.425C34.6533 202.8 34.804 202.95 35.1807 202.95H40.002C40.3787 202.95 40.5293 202.725 40.5293 202.425C40.5293 202.05 40.6047 201.825 40.906 201.825C41.0567 201.825 41.2073 201.9 41.358 201.9C42.5633 202.5 43.9193 202.875 45.0493 202.875C51.3773 203.1 55.5207 199.05 55.5207 193.2Z" fill="black"/>
<path d="M74.7309 183.825V178.2C74.7309 177.9 74.5802 177.675 74.2789 177.675C73.8269 177.6 73.2996 177.525 72.6969 177.525C70.8889 177.525 69.0056 178.575 68.4029 179.175C68.3276 179.25 68.2522 179.325 68.0262 179.325C67.8002 179.325 67.5742 179.1 67.5742 178.8V178.05C67.5742 177.6 67.4236 177.525 67.0469 177.525H62.2256C61.8489 177.525 61.6982 177.675 61.6982 178.05V202.575C61.6982 202.95 61.8489 203.1 62.2256 203.1H67.4989C67.8756 203.1 68.0262 202.95 68.0262 202.575V187.875C68.0262 185.625 69.7589 183.975 72.0942 183.975C73.2996 183.975 73.7516 184.5 74.1282 184.5C74.4296 184.425 74.7309 184.2 74.7309 183.825Z" fill="black"/>
<path d="M93.1878 186.075C93.1878 186.375 92.9618 186.6 92.5851 186.6H85.8804C85.5038 186.6 85.2778 186.375 85.2778 186.075C85.2778 185.325 86.4831 182.85 89.2704 182.85C92.0578 182.85 93.1878 185.4 93.1878 186.075ZM99.6664 191.4V186.825C99.6664 182.175 95.5231 176.925 89.1951 176.925C82.7918 176.925 78.6484 182.175 78.6484 186.825V193.8C78.6484 199.65 82.7918 203.7 89.1951 203.7C94.0918 203.7 96.5778 201.6 98.3104 198.75C98.7624 198 99.1391 197.325 99.1391 197.1C99.1391 196.95 99.0638 196.8 98.8378 196.65L94.6191 194.55C94.1671 194.325 93.8658 194.175 93.6398 194.175C93.4891 194.175 93.3384 194.25 93.1878 194.475C92.2084 196.875 90.6264 197.775 89.1951 197.775C86.8598 197.775 85.1271 195.9 85.1271 193.725V192.525C85.1271 192.15 85.2778 192 85.6544 192H99.1391C99.5158 191.925 99.6664 191.775 99.6664 191.4Z" fill="black"/>
<path d="M158.878 186.075C158.878 186.375 158.652 186.6 158.276 186.6H151.571C151.194 186.6 150.968 186.375 150.968 186.075C150.968 185.325 152.174 182.85 154.961 182.85C157.748 182.85 158.878 185.4 158.878 186.075ZM165.357 191.4V186.825C165.357 182.175 161.214 176.925 154.886 176.925C148.482 176.925 144.339 182.175 144.339 186.825V193.8C144.339 199.65 148.482 203.7 154.886 203.7C159.782 203.7 162.268 201.6 164.001 198.75C164.453 198 164.83 197.325 164.83 197.1C164.83 196.95 164.754 196.8 164.528 196.65L160.31 194.55C159.858 194.325 159.556 194.175 159.33 194.175C159.18 194.175 159.029 194.25 158.878 194.475C157.899 196.875 156.317 197.775 154.886 197.775C152.55 197.775 150.818 195.9 150.818 193.725V192.525C150.818 192.15 150.968 192 151.345 192H164.754C165.206 191.925 165.357 191.775 165.357 191.4Z" fill="black"/>
<path d="M191.422 202.5V186.975C191.422 181.05 187.279 176.85 180.951 176.85H180.876C174.548 176.85 170.404 181.05 170.404 186.975V202.5C170.404 202.875 170.555 203.1 170.932 203.1H176.28C176.657 203.1 176.808 202.95 176.808 202.5V186.975C176.808 184.725 178.54 182.925 180.8 182.925C183.06 182.925 184.868 184.725 184.868 186.975V202.5C184.868 202.875 185.019 203.1 185.396 203.1H190.744C191.196 203.1 191.422 202.95 191.422 202.5Z" fill="black"/>
<path d="M138.764 202.575V186.825C138.764 180.975 134.47 176.925 128.82 176.925C126.485 176.925 123.999 177.525 122.492 178.95C122.417 179.025 122.191 179.1 122.116 179.1C122.04 179.1 121.814 179.1 121.664 179.025C120.232 177.6 117.671 176.925 115.336 176.925C109.686 176.925 105.392 181.05 105.392 186.9V202.575C105.392 202.95 105.542 203.1 105.919 203.1H111.268C111.644 203.1 111.795 202.95 111.795 202.575V186.9C111.795 184.725 113.528 182.925 115.26 182.925C116.842 182.925 118.726 184.65 118.726 186.825V202.575C118.726 202.95 118.876 203.175 119.253 203.175H124.602C124.978 203.175 125.129 203.025 125.129 202.575V186.825C125.129 184.65 127.012 182.85 128.594 182.85C130.327 182.85 132.06 184.65 132.06 186.825V202.575C132.06 202.95 132.21 203.175 132.587 203.175H137.936C138.614 203.1 138.764 202.95 138.764 202.575Z" fill="black"/>
<path d="M81.1335 43.1248H144.79C145.544 40.3498 148.105 38.3248 151.118 38.3248C148.03 20.1748 132.134 6.2998 113 6.2998C93.8649 6.2998 77.9695 20.0998 74.8809 38.3248C77.8942 38.2498 80.4555 40.3498 81.1335 43.1248Z" fill="#D73224"/>
<path d="M144.79 46.5H81.1337C80.3803 49.275 77.819 51.3 74.8057 51.3C77.8943 69.45 93.7897 83.325 112.924 83.325C132.059 83.325 147.954 69.525 151.043 51.3C148.105 51.3 145.544 49.275 144.79 46.5Z" fill="#D73224"/>
</g>
<defs>
<clipPath id="clip0_267_764">
<rect width="226" height="210" fill="white"/>
</clipPath>
</defs>
</svg>
