<?xml version="1.0" encoding="utf-8"?>
<!-- Generator: Adobe Illustrator 27.9.0, SVG Export Plug-In . SVG Version: 6.00 Build 0)  -->
<svg version="1.1" id="Ebene_1" xmlns="http://www.w3.org/2000/svg" xmlns:xlink="http://www.w3.org/1999/xlink" x="0px" y="0px"
	 viewBox="0 0 1080 969" style="enable-background:new 0 0 1080 969;" xml:space="preserve">
<style type="text/css">
	.st0{fill:white;}
</style>
<g>
	<path class="st0" d="M432,632c0.2,0.5,0.4,1,0.6,1.6c-0.3,0.7-0.5,1.5-1,2.1c-3.3,4.9-7.3,9.4-10,14.6
		c-13.8,26.8-17.3,55.4-11.9,84.7c4.7,25.2,14.3,48.1,35.1,65.2c15.7,12.8,32.9,20.9,53.3,20.9c13.2,0,26.4-1.5,39.6-1.8
		c21.4-0.6,42.8-0.9,64.3-1c22.3-0.2,44.6,0.3,66.9-0.2c7.4-0.2,14.9-2.1,22-4.2c9.7-2.9,17.9-8.3,25.7-14.9
		c7.7-6.5,14.1-13.6,19.3-22c14.2-22.9,28.2-46,42.3-69c14.5-23.7,28.9-47.5,43.3-71.3c12.2-20.1,24.3-40.3,36.5-60.5
		c14.6-24.1,29.3-48,43.9-72.1c14.7-24.2,29.2-48.5,43.9-72.6c5.1-8.3,10.3-16.6,15.7-25.1c-2.3-1.8-4.1-3.5-6.1-4.9
		c-7.3-5-14.8-9.8-22-15c-21.6-15.4-43-31.1-64.6-46.5c-30.6-21.8-61.4-43.5-92.1-65.3c-17.6-12.5-35.2-25.1-52.8-37.7
		c-22.5-16.1-44.6-32.7-67.5-48.3c-9.8-6.7-21-11.3-31.4-17c-28.8-15.6-57.5-31.3-86.2-47.1c-13.8-7.6-27.9-14.7-41-23.2
		c-26.7-17.3-53.8-18-81.5-3.8c-18.5,9.5-32.1,24.3-43,41.8c-12.6,20.2-18.7,42.4-20.6,65.8c-1.1,13.7,0,27.4,3.9,40.6
		c6.4,21.7,16.4,40.4,38.9,49.9c11.5,4.9,22.2,11.8,33.3,17.9c12.1,6.6,24.2,13.2,36.2,19.8c1.6,0.9,3,2.2,4.5,3.3
		c-0.2,0.5-0.3,1-0.5,1.5c-2.2,0.5-4.3,0.9-6.5,1.3c-5.1,0.9-10.5,1.2-15.4,2.8c-31.5,10.8-63.7,19.5-94.1,33.3
		c-9.1,4.1-19.4,5.7-29,8.8c-45.1,14.9-90.1,30.1-135.3,44.9c-16.2,5.3-30.4,13.7-41.1,26.8c-15,18.3-23.6,39.7-25.6,63.2
		c-2.1,24.5,0.3,48.7,13.1,70.7c9.1,15.7,21.6,27.2,39.6,31.5c5.5,1.3,11.4,1.1,17.2,1.8c11.6,1.3,23.2,2.6,34.7,3.9
		c7.2,0.8,14.4,1.4,21.6,2.3c10.1,1.2,20.2,2.5,30.3,3.7c7.2,0.8,14.4,1.4,21.6,2.2c10.6,1.2,21.2,2.5,31.8,3.8
		c9.4,1.2,18.8,2.5,28.3,3.7c3.2,0.4,6.6,1.5,9.7,1c15.4-2.7,30.8-5.7,46.1-8.7C421.4,634.3,426.7,633.1,432,632z"/>
	<path class="st0" d="M432,632c-5.3,1.1-46.7,9.4-62.1,12c-3.1,0.5-189.5-21-195.1-22.3c-18-4.3-30.5-15.8-39.6-31.5
		c-12.8-22-15.2-46.2-13.1-70.7c2-23.4,10.6-44.9,25.6-63.2c10.8-13.1,24.9-21.5,41.1-26.8c45.1-14.8,226.9-76.3,258.4-87.1
		c4.9-1.7,19.7-3.7,21.9-4.2c0.2-0.5,0.3-1,0.5-1.5c-1.5-1.1-62.4-36.1-74-41c-22.5-9.5-32.5-28.2-38.9-49.9
		c-3.9-13.3-5-27-3.9-40.6c1.9-23.4,8.1-45.6,20.6-65.8c10.9-17.5,24.5-32.3,43-41.8c27.7-14.3,54.9-13.6,81.5,3.8
		c13.1,8.5,98.4,54.6,127.2,70.3c10.5,5.7,21.7,10.3,31.4,17c22.8,15.6,302.8,215.7,305,217.6c-5.4,8.6-211.4,347.7-225.6,370.6
		c-5.2,8.4-11.6,15.5-19.3,22c-7.8,6.6-16,12.1-25.7,14.9c-7.1,2.1-14.6,4.1-22,4.2c-22.3,0.5-157.6,3-170.8,3.1
		c-20.4,0.1-37.6-8-53.3-20.9c-20.8-17-30.4-40-35.1-65.2c-5.4-29.3-1.9-57.9,11.9-84.7c2.7-5.2,6.6-9.7,10-14.6
		c0.4-0.6,0.6-1.4,1-2.1C432.4,633,432.2,632.5,432,632z"/>
</g>
</svg>
